<svg xmlns="http://www.w3.org/2000/svg" xmlns:xlink="http://www.w3.org/1999/xlink" width="500" zoomAndPan="magnify" viewBox="0 0 375 374.999991" height="500" preserveAspectRatio="xMidYMid meet" version="1.0"><defs><g/><clipPath id="00f54df246"><path d="M 133.679688 117 L 241.679688 117 L 241.679688 216.601562 L 133.679688 216.601562 Z M 133.679688 117 " clip-rule="nonzero"/></clipPath><clipPath id="7bd337e266"><path d="M 148 68.101562 L 207 68.101562 L 207 202 L 148 202 Z M 148 68.101562 " clip-rule="nonzero"/></clipPath></defs><g clip-path="url(#00f54df246)"><path fill="#6e482d" d="M 148.019531 135.902344 C 122.832031 202.9375 207.445312 232.671875 227.253906 178.261719 C 233.613281 160.796875 228.058594 141.214844 213.46875 129.695312 C 214.425781 127.460938 215.132812 125.457031 215.605469 123.6875 C 216.308594 121.074219 216.480469 118.972656 216.132812 117.382812 C 236.105469 129.976562 245.5 154.152344 239.28125 176.933594 C 233.054688 199.710938 212.675781 215.75 189.074219 216.441406 C 165.46875 217.132812 144.1875 202.320312 136.640625 179.941406 C 129.09375 157.5625 137.050781 132.882812 156.253906 119.136719 C 152.75 124.945312 150.039062 130.539062 148.027344 135.894531 Z M 148.019531 135.902344 " fill-opacity="1" fill-rule="evenodd"/></g><path fill="#6d8b77" d="M 195.835938 163.3125 C 175.515625 144.179688 199.605469 132.785156 207.316406 102.804688 C 221.78125 128.578125 187.949219 140.230469 212.488281 163.777344 C 217.859375 160.710938 219.972656 155.957031 218.839844 149.515625 C 218.039062 144.96875 215.617188 139.574219 211.574219 133.34375 C 229.585938 152.976562 229.542969 173.160156 210.382812 193.226562 C 214.5625 182.964844 210.410156 173.972656 198.386719 165.566406 C 197.78125 165.140625 197.339844 164.734375 195.835938 163.320312 Z M 195.835938 163.3125 " fill-opacity="1" fill-rule="evenodd"/><g clip-path="url(#7bd337e266)"><path fill="#50654e" d="M 169.90625 121.316406 C 185.734375 100.195312 199.109375 85.496094 190.707031 68.101562 C 225.492188 112.199219 167.445312 129.730469 188.480469 163.039062 C 192.007812 168.625 202.117188 173.230469 206.539062 181.324219 C 211.292969 209.136719 155.929688 210.320312 148.8125 166.917969 C 146.066406 123.148438 172.949219 114.722656 170.417969 93.261719 C 174.761719 97.230469 174.589844 106.585938 169.914062 121.3125 Z M 169.90625 121.316406 " fill-opacity="1" fill-rule="evenodd"/></g><g fill="#6d8b77" fill-opacity="1"><g transform="translate(98.923788, 251.511283)"><g><path d="M 13.945312 -24.296875 C 13.945312 -24.605469 13.757812 -24.792969 13.449219 -24.792969 L 2.046875 -24.792969 C 1.703125 -24.792969 1.550781 -24.605469 1.550781 -24.296875 L 1.550781 -0.496094 C 1.550781 -0.1875 1.703125 0 2.046875 0 L 5.269531 0 C 5.578125 0 5.765625 -0.1875 5.765625 -0.496094 L 5.765625 -10.382812 L 11.589844 -10.382812 C 11.898438 -10.382812 12.085938 -10.535156 12.085938 -10.878906 L 12.085938 -13.976562 C 12.085938 -14.285156 11.898438 -14.472656 11.589844 -14.472656 L 5.765625 -14.472656 L 5.765625 -20.703125 L 13.449219 -20.703125 C 13.757812 -20.703125 13.945312 -20.886719 13.945312 -21.195312 Z M 13.945312 -24.296875 "/></g></g></g><g fill="#6d8b77" fill-opacity="1"><g transform="translate(114.415964, 251.511283)"><g><path d="M 1.550781 -4.460938 C 1.550781 -1.550781 3.097656 0 6.011719 0 L 9.484375 0 C 12.394531 0 13.945312 -1.550781 13.945312 -4.460938 L 13.945312 -17.230469 C 13.945312 -20.144531 12.394531 -21.691406 9.484375 -21.691406 L 6.011719 -21.691406 C 3.097656 -21.691406 1.550781 -20.144531 1.550781 -17.230469 Z M 6.816406 -3.996094 C 6.011719 -3.996094 5.578125 -4.402344 5.578125 -5.238281 L 5.578125 -16.457031 C 5.578125 -17.261719 6.011719 -17.695312 6.816406 -17.695312 L 8.800781 -17.695312 C 9.605469 -17.695312 10.039062 -17.261719 10.039062 -16.457031 L 10.039062 -5.238281 C 10.039062 -4.402344 9.605469 -3.996094 8.800781 -3.996094 Z M 6.816406 -3.996094 "/></g></g></g><g fill="#6d8b77" fill-opacity="1"><g transform="translate(129.908139, 251.511283)"><g><path d="M 13.976562 -17.230469 C 13.976562 -20.144531 12.394531 -21.691406 9.515625 -21.691406 L 6.042969 -21.691406 C 3.128906 -21.691406 1.550781 -20.144531 1.550781 -17.230469 L 1.550781 -4.460938 C 1.550781 -1.550781 3.128906 0 6.042969 0 L 9.515625 0 C 12.394531 0 13.976562 -1.550781 13.976562 -4.460938 L 13.976562 -7.808594 C 13.976562 -8.121094 13.789062 -8.304688 13.480469 -8.304688 L 10.566406 -8.304688 C 10.226562 -8.304688 10.070312 -8.121094 10.070312 -7.808594 L 10.070312 -5.175781 C 10.070312 -4.339844 9.636719 -3.9375 8.832031 -3.9375 L 6.847656 -3.9375 C 6.042969 -3.9375 5.609375 -4.339844 5.609375 -5.175781 L 5.609375 -16.425781 C 5.609375 -17.230469 6.011719 -17.664062 6.847656 -17.664062 L 8.832031 -17.664062 C 9.636719 -17.664062 10.070312 -17.230469 10.070312 -16.425781 L 10.070312 -13.882812 C 10.070312 -13.574219 10.226562 -13.386719 10.566406 -13.386719 L 13.480469 -13.386719 C 13.789062 -13.386719 13.976562 -13.574219 13.976562 -13.882812 Z M 13.976562 -17.230469 "/></g></g></g><g fill="#6d8b77" fill-opacity="1"><g transform="translate(145.431293, 251.511283)"><g><path d="M 10.476562 -21.691406 C 10.132812 -21.691406 9.855469 -21.414062 9.855469 -21.074219 L 9.855469 -5.332031 C 9.855469 -4.492188 9.421875 -4.089844 8.613281 -4.089844 L 7.003906 -4.089844 C 6.199219 -4.089844 5.765625 -4.492188 5.765625 -5.332031 L 5.765625 -21.074219 C 5.765625 -21.414062 5.484375 -21.691406 5.144531 -21.691406 L 2.167969 -21.691406 C 1.828125 -21.691406 1.550781 -21.414062 1.550781 -21.074219 L 1.550781 -4.460938 C 1.550781 -1.550781 3.097656 0 6.011719 0 L 9.484375 0 C 12.394531 0 13.945312 -1.550781 13.945312 -4.460938 L 13.945312 -21.074219 C 13.945312 -21.414062 13.667969 -21.691406 13.324219 -21.691406 Z M 10.476562 -21.691406 "/></g></g></g><g fill="#6d8b77" fill-opacity="1"><g transform="translate(160.923468, 251.511283)"><g><path d="M 6.011719 -21.691406 C 3.128906 -21.691406 1.550781 -20.144531 1.550781 -17.230469 L 1.550781 -11.871094 C 1.550781 -11.28125 1.828125 -10.910156 2.386719 -10.722656 L 9.824219 -8.304688 L 9.824219 -5.175781 C 9.824219 -4.339844 9.390625 -3.9375 8.585938 -3.9375 L 6.910156 -3.9375 C 6.136719 -3.9375 5.671875 -4.339844 5.671875 -5.175781 L 5.671875 -6.476562 C 5.671875 -6.816406 5.515625 -6.972656 5.175781 -6.972656 L 2.046875 -6.972656 C 1.734375 -6.972656 1.550781 -6.816406 1.550781 -6.476562 L 1.550781 -4.460938 C 1.550781 -1.550781 3.128906 0 6.011719 0 L 9.484375 0 C 12.394531 0 13.945312 -1.550781 13.945312 -4.460938 L 13.945312 -10.289062 C 13.945312 -10.878906 13.667969 -11.25 13.140625 -11.433594 L 5.640625 -13.851562 L 5.640625 -16.488281 C 5.640625 -17.292969 6.105469 -17.726562 6.878906 -17.726562 L 8.585938 -17.726562 C 9.421875 -17.726562 9.824219 -17.292969 9.824219 -16.488281 L 9.824219 -15.183594 C 9.824219 -14.875 10.011719 -14.6875 10.320312 -14.6875 L 13.449219 -14.6875 C 13.789062 -14.6875 13.945312 -14.875 13.945312 -15.183594 L 13.945312 -17.230469 C 13.945312 -20.144531 12.394531 -21.691406 9.484375 -21.691406 Z M 6.011719 -21.691406 "/></g></g></g><g fill="#6d8b77" fill-opacity="1"><g transform="translate(176.415643, 251.511283)"><g><path d="M 13.914062 -21.195312 C 13.914062 -21.507812 13.789062 -21.691406 13.417969 -21.691406 L 2.015625 -21.691406 C 1.734375 -21.691406 1.550781 -21.507812 1.550781 -21.195312 L 1.550781 -0.496094 C 1.550781 -0.1875 1.734375 0 2.015625 0 L 13.417969 0 C 13.789062 0 13.914062 -0.1875 13.914062 -0.496094 L 13.914062 -3.59375 C 13.914062 -3.9375 13.789062 -4.089844 13.417969 -4.089844 L 5.765625 -4.089844 L 5.765625 -8.675781 L 11.589844 -8.675781 C 11.898438 -8.675781 12.085938 -8.863281 12.085938 -9.203125 L 12.085938 -12.273438 C 12.085938 -12.613281 11.898438 -12.800781 11.589844 -12.800781 L 5.765625 -12.800781 L 5.765625 -17.570312 L 13.417969 -17.570312 C 13.789062 -17.570312 13.914062 -17.789062 13.914062 -18.097656 Z M 13.914062 -21.195312 "/></g></g></g><g fill="#6d8b77" fill-opacity="1"><g transform="translate(191.876828, 251.511283)"><g><path d="M 1.550781 -0.496094 C 1.550781 -0.15625 1.703125 0 2.046875 0 L 9.484375 0 C 12.394531 0 13.945312 -1.550781 13.945312 -4.460938 L 13.945312 -17.199219 C 13.945312 -20.113281 12.394531 -21.691406 9.484375 -21.691406 L 2.046875 -21.691406 C 1.703125 -21.691406 1.550781 -21.507812 1.550781 -21.195312 Z M 5.765625 -4.089844 L 5.765625 -17.601562 L 8.613281 -17.601562 C 9.421875 -17.601562 9.855469 -17.167969 9.855469 -16.332031 L 9.855469 -5.332031 C 9.855469 -4.492188 9.421875 -4.089844 8.613281 -4.089844 Z M 5.765625 -4.089844 "/></g></g></g><g fill="#6d8b77" fill-opacity="1"><g transform="translate(207.369003, 251.511283)"><g><path d="M 13.945312 -24.296875 C 13.945312 -24.605469 13.757812 -24.792969 13.449219 -24.792969 L 2.046875 -24.792969 C 1.703125 -24.792969 1.550781 -24.605469 1.550781 -24.296875 L 1.550781 -0.496094 C 1.550781 -0.1875 1.703125 0 2.046875 0 L 5.269531 0 C 5.578125 0 5.765625 -0.1875 5.765625 -0.496094 L 5.765625 -10.382812 L 11.589844 -10.382812 C 11.898438 -10.382812 12.085938 -10.535156 12.085938 -10.878906 L 12.085938 -13.976562 C 12.085938 -14.285156 11.898438 -14.472656 11.589844 -14.472656 L 5.765625 -14.472656 L 5.765625 -20.703125 L 13.449219 -20.703125 C 13.757812 -20.703125 13.945312 -20.886719 13.945312 -21.195312 Z M 13.945312 -24.296875 "/></g></g></g><g fill="#6d8b77" fill-opacity="1"><g transform="translate(222.861178, 251.511283)"><g><path d="M 5.765625 -4.089844 L 11.898438 -4.089844 C 12.242188 -4.089844 12.394531 -3.90625 12.394531 -3.59375 L 12.394531 -0.496094 C 12.394531 -0.15625 12.242188 0 11.898438 0 L 2.046875 0 C 1.734375 0 1.550781 -0.15625 1.550781 -0.496094 L 1.550781 -21.195312 C 1.550781 -21.507812 1.734375 -21.691406 2.046875 -21.691406 L 5.269531 -21.691406 C 5.609375 -21.691406 5.765625 -21.507812 5.765625 -21.195312 Z M 5.765625 -4.089844 "/></g></g></g><g fill="#6d8b77" fill-opacity="1"><g transform="translate(236.804133, 251.511283)"><g><path d="M 1.550781 -4.460938 C 1.550781 -1.550781 3.097656 0 6.011719 0 L 9.484375 0 C 12.394531 0 13.945312 -1.550781 13.945312 -4.460938 L 13.945312 -17.230469 C 13.945312 -20.144531 12.394531 -21.691406 9.484375 -21.691406 L 6.011719 -21.691406 C 3.097656 -21.691406 1.550781 -20.144531 1.550781 -17.230469 Z M 6.816406 -3.996094 C 6.011719 -3.996094 5.578125 -4.402344 5.578125 -5.238281 L 5.578125 -16.457031 C 5.578125 -17.261719 6.011719 -17.695312 6.816406 -17.695312 L 8.800781 -17.695312 C 9.605469 -17.695312 10.039062 -17.261719 10.039062 -16.457031 L 10.039062 -5.238281 C 10.039062 -4.402344 9.605469 -3.996094 8.800781 -3.996094 Z M 6.816406 -3.996094 "/></g></g></g><g fill="#6d8b77" fill-opacity="1"><g transform="translate(252.296308, 251.511283)"><g><path d="M 19.089844 -21.691406 C 18.6875 -21.691406 18.5 -21.507812 18.4375 -21.105469 L 16.859375 -8.148438 L 16.703125 -8.148438 L 13.667969 -21.167969 C 13.574219 -21.507812 13.355469 -21.691406 12.984375 -21.691406 L 11.09375 -21.691406 C 10.722656 -21.691406 10.503906 -21.507812 10.414062 -21.167969 L 7.375 -8.148438 L 7.21875 -8.148438 L 5.703125 -21.105469 C 5.640625 -21.507812 5.421875 -21.691406 5.050781 -21.691406 L 2.136719 -21.691406 C 1.703125 -21.691406 1.488281 -21.445312 1.550781 -21.042969 L 4.402344 -0.589844 C 4.460938 -0.1875 4.679688 0 5.082031 0 L 8.492188 0 C 8.863281 0 9.078125 -0.1875 9.171875 -0.558594 L 12.054688 -13.265625 L 14.90625 -0.558594 C 15 -0.1875 15.214844 0 15.589844 0 L 18.933594 0 C 19.335938 0 19.554688 -0.1875 19.617188 -0.558594 L 22.589844 -21.042969 C 22.652344 -21.445312 22.4375 -21.691406 22.003906 -21.691406 Z M 19.089844 -21.691406 "/></g></g></g></svg>